HIERARCHY
ROOT Hips
{
	OFFSET 0.000000 0.000000 0.000000
	CHANNELS 6 Xposition Yposition Zposition Zrotation Yrotation Xrotation 
	JOINT LHipJoint
	{
		OFFSET 0.000000 0.000000 0.000000
		CHANNELS 3 Zrotation Yrotation Xrotation
		JOINT LeftUpLeg
		{
			OFFSET 1.363060 -1.794630 0.839290
			CHANNELS 3 Zrotation Yrotation Xrotation
			JOINT LeftLeg
			{
				OFFSET 2.448110 -6.726130 0.000000
				CHANNELS 3 Zrotation Yrotation Xrotation
				JOINT LeftFoot
				{
					OFFSET 2.562200 -7.039590 0.000000
					CHANNELS 3 Zrotation Yrotation Xrotation
					JOINT LeftToeBase
					{
						OFFSET 0.157640 -0.433110 2.322550
						CHANNELS 3 Zrotation Yrotation Xrotation
						End Site
						{
							OFFSET 0.000000 0.000000 0.000000
						}
					}
				}
			}
		}
	}
	JOINT RHipJoint
	{
		OFFSET 0.000000 0.000000 0.000000
		CHANNELS 3 Zrotation Yrotation Xrotation
		JOINT RightUpLeg
		{
			OFFSET -1.305520 -1.794630 0.839290
			CHANNELS 3 Zrotation Yrotation Xrotation
			JOINT RightLeg
			{
				OFFSET -2.542530 -6.985550 0.000000
				CHANNELS 3 Zrotation Yrotation Xrotation
				JOINT RightFoot
				{
					OFFSET -2.568260 -7.056230 0.000000
					CHANNELS 3 Zrotation Yrotation Xrotation
					JOINT RightToeBase
					{
						OFFSET -0.164730 -0.452590 2.363150
						CHANNELS 3 Zrotation Yrotation Xrotation
						End Site
						{
							OFFSET 0.000000 0.000000 0.000000
						}
					}
				}
			}
		}
	}
}
MOTION
Frames: 19
Frame Time: 0.008333
5.406308 17.407753 0.517958 3.010492 -70.232253 7.696547 -10.570865 1.462378 2.594674 -6.187278 5.149536 -15.239670 -2.728606 -1.390845 -2.552993 -0.395571 -1.755007 7.093326 0.023400 -0.000000 -30.928401 9.771804 -2.469301 1.237086 7.757123 -9.369663 -8.488219 1.850152 1.570616 -3.494272 -2.002285 -14.390099 -2.922249 -3.001800 -0.000000 -22.873000
5.404666 17.399347 0.526249 2.785992 -69.761457 7.638905 -10.556672 1.498783 2.655159 -6.059832 4.779773 -14.933313 -2.699998 -1.365796 -2.522303 -0.398344 -1.879893 6.959569 -0.007400 -0.000000 -31.149200 9.780525 -2.445165 1.132609 7.764852 -9.611937 -8.007816 1.816350 1.579252 -3.556591 -2.098265 -14.799554 -3.031448 -3.010100 0.000001 -22.926700
5.402651 17.391400 0.535919 2.589536 -69.419793 7.591101 -10.546967 1.535982 2.709462 -5.950773 4.476582 -14.674834 -2.673748 -1.342555 -2.473937 -0.397555 -1.969704 6.802852 -0.029500 -0.000000 -31.352300 9.784978 -2.423169 1.050668 7.766124 -9.802438 -7.565355 1.789078 1.595259 -3.675902 -2.196939 -15.131944 -3.078596 -3.002100 0.000000 -23.013000
5.399620 17.384288 0.546715 2.431560 -69.209765 7.548642 -10.541618 1.573740 2.757109 -5.866747 4.251454 -14.470219 -2.651557 -1.322170 -2.410156 -0.394162 -2.029815 6.630569 -0.044100 -0.000001 -31.528600 9.786067 -2.404425 0.995721 7.757301 -9.935161 -7.173983 1.768118 1.617656 -3.843401 -2.295085 -15.383150 -3.069430 -2.980100 -0.000000 -23.123801
5.394987 17.378346 0.558325 2.321722 -69.126755 7.505586 -10.539653 1.612500 2.798966 -5.812034 4.109137 -14.321277 -2.634744 -1.305466 -2.335221 -0.389088 -2.065557 6.452325 -0.052600 -0.000000 -31.671700 9.785398 -2.389904 0.970872 7.735334 -10.007177 -6.843046 1.752692 1.645038 -4.045756 -2.388782 -15.555205 -3.013847 -2.947400 0.000000 -23.249100
5.388441 17.373778 0.570492 2.262746 -69.161973 7.457771 -10.540000 1.653146 2.836615 -5.788806 4.048506 -14.225938 -2.623951 -1.292853 -2.254584 -0.383034 -2.081775 6.275845 -0.056300 0.000000 -31.775300 9.784223 -2.379754 0.977173 7.698637 -10.018302 -6.578907 1.741906 1.676024 -4.267483 -2.474089 -15.655021 -2.924089 -2.908100 -0.000000 -23.380200
5.379892 17.370702 0.582949 2.254803 -69.303762 7.400760 -10.541601 1.696659 2.871707 -5.796372 4.062810 -14.177368 -2.619153 -1.284251 -2.175039 -0.376440 -2.082004 6.108619 -0.056100 0.000000 -31.837700 9.783490 -2.373510 1.013109 7.646771 -9.971322 -6.382660 1.734705 1.708969 -4.491075 -2.546953 -15.692711 -2.813443 -2.866600 -0.000001 -23.508300
5.369298 17.369057 0.595434 2.298433 -69.538742 7.329505 -10.543730 1.744123 2.905823 -5.831946 4.141470 -14.165660 -2.619820 -1.279299 -2.103539 -0.369426 -2.067821 5.955717 -0.052700 -0.000000 -31.858700 9.783657 -2.370229 1.075191 7.579872 -9.871959 -6.251742 1.730091 1.742421 -4.699878 -2.604252 -15.679336 -2.695501 -2.826800 -0.000000 -23.628600
5.357181 17.368659 0.607761 2.386535 -69.852399 7.239581 -10.546075 1.795744 2.939650 -5.890688 4.271631 -14.177848 -2.624772 -1.277245 -2.045753 -0.361886 -2.039712 5.819025 -0.046500 0.000000 -31.841901 9.784480 -2.368565 1.157809 7.499654 -9.728457 -6.179136 1.727353 1.774778 -4.878762 -2.643688 -15.625213 -2.582699 -2.791400 0.000000 -23.739701
5.344026 17.369247 0.619847 2.511987 -70.230057 7.129010 -10.548604 1.851586 2.973585 -5.966491 4.440277 -14.200322 -2.632666 -1.277359 -2.005808 -0.353585 -1.997269 5.698299 -0.037500 0.000000 -31.792400 9.785617 -2.367593 1.254653 7.408410 -9.551899 -6.154990 1.726034 1.804688 -5.016430 -2.663659 -15.539153 -2.484629 -2.761999 0.000000 -23.843800
5.330461 17.370474 0.631651 2.664961 -70.657823 6.996830 -10.551527 1.911077 3.007471 -6.052332 4.635279 -14.220170 -2.642001 -1.278912 -1.985593 -0.344206 -1.939560 5.590565 -0.025700 -0.000000 -31.717200 9.786514 -2.366556 1.359292 7.309063 -9.353982 -6.168116 1.726050 1.830993 -5.105362 -2.663796 -15.426268 -2.408127 -2.739100 -0.000000 -23.946700
5.317237 17.371933 0.643197 2.832078 -71.123555 6.845357 -10.555193 1.973090 3.040797 -6.141314 4.846543 -14.226627 -2.651303 -1.281337 -1.985350 -0.333409 -1.865317 5.491213 -0.010900 -0.000000 -31.623400 9.786546 -2.365080 1.465914 7.205262 -9.146264 -6.207232 1.727608 1.852854 -5.142882 -2.644606 -15.289511 -2.356429 -2.722000 0.000000 -24.056400
5.304763 17.373285 0.654591 3.003519 -71.616986 6.678996 -10.559886 2.036684 3.073168 -6.227575 5.066939 -14.211845 -2.659506 -1.284369 -2.003516 -0.320959 -1.773934 5.394628 0.007000 0.000000 -31.518800 9.785371 -2.363438 1.570238 7.100628 -8.939355 -6.262343 1.731132 1.869929 -5.130793 -2.606965 -15.128711 -2.329964 -2.709000 -0.000001 -24.183600
5.293673 17.374222 0.665964 3.164937 -72.130695 6.504025 -10.565940 2.100453 3.103956 -6.306389 5.292811 -14.171681 -2.665714 -1.287833 -2.037593 -0.306710 -1.665224 5.295675 0.028000 0.000000 -31.410800 9.782621 -2.362012 1.669251 6.998481 -8.742034 -6.325502 1.737244 1.882080 -5.073808 -2.552713 -14.941690 -2.325904 -2.697999 0.000000 -24.338200
5.284066 17.374503 0.677432 3.309299 -72.660640 6.327162 -10.573531 2.163531 3.132791 -6.374758 5.523636 -14.105132 -2.669632 -1.291913 -2.085297 -0.290649 -1.539854 5.189750 0.051900 0.000000 -31.305299 9.778243 -2.361583 1.761945 6.901484 -8.559531 -6.391259 1.746478 1.889740 -4.979958 -2.483911 -14.725675 -2.339695 -2.686900 -0.000001 -24.529500
5.276098 17.374000 0.689144 3.427445 -73.205000 6.156017 -10.582858 2.225083 3.159068 -6.431590 5.762182 -14.014333 -2.671255 -1.296732 -2.143873 -0.272938 -1.399873 5.073989 0.078299 -0.000000 -31.207000 9.772140 -2.362762 1.848448 6.811602 -8.394216 -6.456820 1.759402 1.893512 -4.857972 -2.402977 -14.477371 -2.365391 -2.673500 0.000000 -24.764500
5.269600 17.372670 0.701151 3.515650 -73.763918 5.997570 -10.594041 2.284813 3.182389 -6.477286 6.013608 -13.903831 -2.671067 -1.302583 -2.211080 -0.253939 -1.248987 4.946905 0.106300 -0.000000 -31.119200 9.764433 -2.366335 1.930057 6.729785 -8.246370 -6.521060 1.776437 1.894288 -4.717299 -2.312088 -14.193898 -2.396678 -2.655899 0.000000 -25.047000
5.264328 17.370589 0.713438 3.574944 -74.340876 5.854357 -10.607029 2.343036 3.202609 -6.514227 6.283751 -13.779428 -2.669794 -1.309788 -2.286993 -0.233951 -1.089660 4.810119 0.135400 0.000000 -31.042000 9.755324 -2.372550 2.009593 6.655394 -8.110174 -6.586161 1.797502 1.893208 -4.566520 -2.213940 -13.875600 -2.427945 -2.633200 -0.000001 -25.376700
5.259938 17.367846 0.726038 3.603979 -74.936589 5.731859 -10.622076 2.399717 3.218755 -6.544370 6.581512 -13.647714 -2.668376 -1.318379 -2.368159 -0.213775 -0.929779 4.664687 0.164000 0.000001 -30.975999 9.744878 -2.382011 2.088767 6.588613 -7.983775 -6.652389 1.822795 1.891093 -4.413262 -2.110532 -13.521342 -2.453568 -2.604300 0.000000 -25.750000
